# xmcd CD database file
#
# Track frame offsets:
#	150
#	19575
#	44025
#
# Disc length: 793 seconds
#
# Revision: 1
# Processed by: cddbd v1.5.1PL0 Copyright (c) Steve Scherf et al.
# Submitted via: CDex 1.40Beta9
#
DISCID=1f031703
DTITLE=Digital Boy with Asia - The Montain Of King
DYEAR=1994
DGENRE=Dance
TTITLE0=The Montain Of King (Radio Edit)
TTITLE1=The Montain Of King (Original Mix)
TTITLE2=S.A.L.T.A. (180 Hard Slam)
EXTD=YEAR: 1994 ID3G: 3
EXTT0=
EXTT1=
EXTT2=
PLAYORDER=
